<svg xmlns="http://www.w3.org/2000/svg" width="153" height="37" viewBox="0 0 153 37" fill="none"><path d="M140.318 12.1069C143.899 12.1069 146.874 13.3602 149.243 15.8669C151.447 18.1808 152.549 20.9767 152.549 24.2547C152.549 27.4776 151.337 30.2598 148.913 32.6012C146.516 34.9151 143.665 36.072 140.36 36.072C136.972 36.072 134.079 34.8737 131.683 32.4772C129.369 30.1358 128.212 27.3399 128.212 24.0894C128.212 20.7564 129.424 17.9191 131.848 15.5777C134.217 13.2638 137.04 12.1069 140.318 12.1069ZM140.36 17.1478C138.294 17.1478 136.586 17.988 135.236 19.6683C134.245 20.9354 133.749 22.3816 133.749 24.0068C133.749 26.3482 134.616 28.2214 136.352 29.6262C137.536 30.5628 138.886 31.0311 140.401 31.0311C142.522 31.0311 144.244 30.1634 145.566 28.428C146.53 27.1608 147.012 25.7147 147.012 24.0894C147.012 21.8582 146.172 20.0402 144.492 18.6353C143.28 17.6437 141.902 17.1478 140.36 17.1478Z" fill="black"></path><path d="M118.046 35.5349V17.6437H115.36V12.644H118.046V5H123.541V12.644H126.847V17.6437H123.541V35.5349H118.046Z" fill="black"></path><path d="M97.2523 28.2627H102.789C103.257 29.943 104.111 30.852 105.351 30.9897C105.516 31.0173 105.681 31.0311 105.847 31.0311C106.976 31.0311 107.734 30.5903 108.119 29.7089C108.257 29.4058 108.326 29.1028 108.326 28.7998C108.326 28.0561 107.982 27.4638 107.293 27.0231C106.852 26.7476 105.902 26.362 104.442 25.8662C101.247 24.7919 99.277 23.3595 98.5332 21.569C98.2302 20.8528 98.0787 20.0264 98.0787 19.0898C98.0787 16.8311 99.0153 15.013 100.888 13.6357C102.266 12.6165 103.863 12.1069 105.681 12.1069C108.078 12.1069 110.034 12.9471 111.549 14.6274C112.568 15.7568 113.119 17.2029 113.202 18.9659H107.83C107.582 17.7538 106.866 17.1478 105.681 17.1478C104.717 17.1478 104.056 17.5472 103.698 18.3461L103.574 19.0898C103.574 19.7785 103.946 20.2881 104.69 20.6186C105.048 20.7839 105.971 21.1007 107.458 21.569C109.497 22.2025 110.901 22.8499 111.673 23.511C113.105 24.6404 113.821 26.2243 113.821 28.2627C113.821 30.7418 112.843 32.7527 110.888 34.2953C109.4 35.4798 107.651 36.072 105.64 36.072C103.078 36.072 100.985 35.2456 99.3596 33.5928C99.1392 33.3725 98.9464 33.1383 98.7811 32.8904C97.9823 31.8161 97.4727 30.2735 97.2523 28.2627Z" fill="black"></path><path d="M94.6014 12.644V35.5349H89.5605V32.5599C87.7425 34.6258 85.6214 35.7828 83.1973 36.0307C82.8117 36.0582 82.3985 36.072 81.9578 36.072C78.3492 36.072 75.4431 34.7911 73.2394 32.2293C71.3663 30.0256 70.4297 27.3399 70.4297 24.1721C70.4297 20.3707 71.6969 17.3131 74.2311 14.9992C76.3797 13.071 78.9966 12.1069 82.0817 12.1069C85.0843 12.1069 87.467 13.1536 89.2299 15.2472C89.3401 15.3849 89.4503 15.5364 89.5605 15.7017V12.644H94.6014ZM82.6602 17.1478C80.2361 17.1478 78.4043 18.1119 77.1648 20.0402C76.3659 21.2522 75.9665 22.6708 75.9665 24.296C75.9665 26.8578 76.9306 28.7447 78.8588 29.9568C79.9607 30.673 81.2553 31.0311 82.7428 31.0311C84.919 31.0311 86.5855 30.3424 87.7425 28.9651C88.7617 27.5878 89.3126 26.0177 89.3952 24.2547C89.3952 21.6378 88.4587 19.6683 86.5855 18.3461C85.4561 17.5472 84.1477 17.1478 82.6602 17.1478Z" fill="black"></path><path d="M67.6759 26.5273H49.95C50.4458 28.5657 51.7129 29.9292 53.7513 30.6179C54.5226 30.8933 55.3628 31.0311 56.2718 31.0311C58.1449 31.0311 59.66 30.4526 60.8169 29.2957C60.9822 29.1304 61.1474 28.9513 61.3127 28.7585H67.304C66.9734 29.7777 66.3674 30.8382 65.486 31.9401C63.0894 34.6947 60.0594 36.072 56.3957 36.072C52.7597 36.072 49.7296 34.8324 47.3055 32.3533C45.1018 30.0945 44 27.3674 44 24.1721C44 20.7013 45.2258 17.7952 47.6774 15.4537C49.9913 13.2225 52.7872 12.1069 56.0652 12.1069C59.7013 12.1069 62.6487 13.4016 64.9075 15.9909C66.8908 18.2772 67.8825 21.0869 67.8825 24.42C67.8825 25.1637 67.8136 25.8662 67.6759 26.5273ZM49.7847 21.6929H62.4697C61.8361 18.9934 60.0732 17.4922 57.1808 17.1891C56.8503 17.1616 56.5059 17.1478 56.1478 17.1478C52.98 17.1478 50.9141 18.5114 49.95 21.2384C49.8949 21.3762 49.8398 21.5277 49.7847 21.6929Z" fill="black"></path><g clip-path="url(#clip0_159_2485)"><path d="M8.55 0L0 5.79V36.22H8.64V1.7L11.78 3.38V36.22H13.24V2.5L8.55 0Z" fill="#96796E"></path><path d="M24.0504 9.06055L19.3604 11.5605V36.2205H20.8204V12.4405L23.9604 10.7605V36.2205H32.6003V14.8505L24.0504 9.06055Z" fill="#96796E"></path><path d="M8.63965 1.69922L11.7796 3.37922V36.2192V3.37922L8.63965 1.69922Z" fill="#96796E"></path></g><defs><clipPath id="clip0_159_2485"><rect width="32.6" height="36.22" fill="white"></rect></clipPath></defs></svg>